<svg xmlns="http://www.w3.org/2000/svg" xmlns:xlink="http://www.w3.org/1999/xlink" viewBox="0 0 12 16"><defs><style>.cls-1{fill:url(#linear-gradient);}.cls-2{fill:url(#linear-gradient-2);}.cls-3{fill:url(#linear-gradient-3);}</style><linearGradient id="linear-gradient" x1="7098.47" y1="7155.14" x2="7100.05" y2="7171.59" gradientUnits="userSpaceOnUse"><stop offset="0" stop-color="red"/><stop offset="0.16" stop-color="#fc0000"/><stop offset="0.29" stop-color="#f10000"/><stop offset="0.41" stop-color="#e00000"/><stop offset="0.52" stop-color="#c80000"/><stop offset="0.63" stop-color="#a90000"/><stop offset="0.74" stop-color="#820000"/><stop offset="0.84" stop-color="#540000"/><stop offset="0.94" stop-color="#210000"/><stop offset="1"/></linearGradient><linearGradient id="linear-gradient-2" x1="7095.32" y1="7162.66" x2="7099.34" y2="7162.66" gradientUnits="userSpaceOnUse"><stop offset="0" stop-color="red"/><stop offset="1"/></linearGradient><linearGradient id="linear-gradient-3" x1="7102.86" y1="7154.04" x2="7100.06" y2="7161.14" gradientUnits="userSpaceOnUse"><stop offset="0" stop-color="red"/><stop offset="0.37" stop-color="#fd0000"/><stop offset="0.51" stop-color="#f60000"/><stop offset="0.6" stop-color="#eb0000"/><stop offset="0.68" stop-color="#da0000"/><stop offset="0.75" stop-color="#c40000"/><stop offset="0.8" stop-color="#a80000"/><stop offset="0.86" stop-color="#800"/><stop offset="0.91" stop-color="#620000"/><stop offset="0.95" stop-color="#370000"/><stop offset="0.99" stop-color="#090000"/><stop offset="1"/></linearGradient></defs><g id="Layer_2" data-name="Layer 2"><path class="cls-1" d="M7105.48,7170.74a5.92,5.92,0,0,1-2.46-.64,2.32,2.32,0,0,1-.51-.44c-.94-1.09-2.65-3.46-2.92-3.84a6,6,0,0,0,1.29-.52,2.64,2.64,0,0,0,0-5l-.25-.13a6.67,6.67,0,0,0-1.77-.55l-.34-.05a8.1,8.1,0,0,0-1-.06,7.63,7.63,0,0,0-1.28.1,6.9,6.9,0,0,0-1.15.28,5.76,5.76,0,0,0-1.12.51c-.16.1-.32.2-.47.31l.48.63.61.81a2.8,2.8,0,0,1,1.46-1l.19-.06a5.14,5.14,0,0,1,1.28-.17h.05a4.74,4.74,0,0,1,.94.11,3.66,3.66,0,0,1,.95.32,1.93,1.93,0,0,1,1.25,1.61c0,.83-.78,1.54-1.87,1.86l-.31.08a5.49,5.49,0,0,1-1,.1,5.06,5.06,0,0,1-.79-.06,24.64,24.64,0,0,0,4.46,5.64,5.29,5.29,0,0,0,1.85.7l.4,0a5,5,0,0,0,.91-.08A3.05,3.05,0,0,0,7105.48,7170.74Z" transform="translate(-7093.48 -7155.3)"/><path class="cls-2" d="M7096.3,7164.41l-1-1.35,2-2.14a4.15,4.15,0,0,1,1.32.1,3.29,3.29,0,0,1,.69.27Z" transform="translate(-7093.48 -7155.3)"/><path class="cls-3" d="M7104.52,7155.41l-4.14,4.64a7.51,7.51,0,0,0-1.41-.42,4.8,4.8,0,0,0-.48-.08l2.18-2.59h0l1.35-1.37a2.6,2.6,0,0,1,.36-.13,4.36,4.36,0,0,1,1.17-.15A3.8,3.8,0,0,1,7104.52,7155.41Z" transform="translate(-7093.48 -7155.3)"/></g></svg>