<svg xmlns="http://www.w3.org/2000/svg" xmlns:xlink="http://www.w3.org/1999/xlink" viewBox="0 0 14 16"><defs><style>.cls-1{fill:url(#linear-gradient);}.cls-2{fill:url(#linear-gradient-2);}.cls-3{fill:url(#linear-gradient-3);}</style><linearGradient id="linear-gradient" x1="22.99" y1="19.28" x2="26.83" y2="34.85" gradientUnits="userSpaceOnUse"><stop offset="0" stop-color="red"/><stop offset="0.11" stop-color="#fa0000"/><stop offset="0.23" stop-color="#ed0000"/><stop offset="0.36" stop-color="#d60000"/><stop offset="0.5" stop-color="#b70000"/><stop offset="0.64" stop-color="#8e0000"/><stop offset="0.78" stop-color="#5d0000"/><stop offset="0.92" stop-color="#230000"/><stop offset="1"/></linearGradient><linearGradient id="linear-gradient-2" x1="20.57" y1="25.87" x2="25.9" y2="21.42" gradientUnits="userSpaceOnUse"><stop offset="0" stop-color="red"/><stop offset="0.13" stop-color="#fb0000"/><stop offset="0.26" stop-color="#f00000"/><stop offset="0.38" stop-color="#d00"/><stop offset="0.51" stop-color="#c20000"/><stop offset="0.63" stop-color="#9f0000"/><stop offset="0.75" stop-color="#750000"/><stop offset="0.87" stop-color="#430000"/><stop offset="0.98" stop-color="#0a0000"/><stop offset="1"/></linearGradient><linearGradient id="linear-gradient-3" x1="29.59" y1="16.96" x2="24.62" y2="22.48" gradientUnits="userSpaceOnUse"><stop offset="0" stop-color="red"/><stop offset="0.37" stop-color="#fd0000"/><stop offset="0.51" stop-color="#f60000"/><stop offset="0.6" stop-color="#eb0000"/><stop offset="0.68" stop-color="#da0000"/><stop offset="0.75" stop-color="#c40000"/><stop offset="0.8" stop-color="#a80000"/><stop offset="0.86" stop-color="#800"/><stop offset="0.91" stop-color="#620000"/><stop offset="0.95" stop-color="#370000"/><stop offset="0.99" stop-color="#090000"/><stop offset="1"/></linearGradient></defs><g id="Layer_2" data-name="Layer 2"><path class="cls-1" d="M19.36,23.94,18,22.36a8.54,8.54,0,0,1,2.94-1,11.86,11.86,0,0,1,5.34.42A5.3,5.3,0,0,1,28.34,23a2,2,0,0,1,.51,2.13c-.58,1.56-3.09,2.3-3.46,2.4a37.56,37.56,0,0,0,3.16,3.66l.43.44a6.41,6.41,0,0,0,1.3.55,8.41,8.41,0,0,0,1.72.31,5.89,5.89,0,0,1-3.09.59A4.07,4.07,0,0,1,26.54,32,29.23,29.23,0,0,1,22,26.81,6.79,6.79,0,0,0,24.82,26c.27-.16,1.52-.9,1.15-1.89a2.5,2.5,0,0,0-1.87-1.34A5.66,5.66,0,0,0,19.36,23.94Z" transform="translate(-18 -17.14)"/><path class="cls-2" d="M21.52,26.43l-1.29-1.54,2.55-2.21a5,5,0,0,1,1.32.11,3.33,3.33,0,0,1,1.08.45Z" transform="translate(-18 -17.14)"/><path class="cls-3" d="M23.87,21.29a9.62,9.62,0,0,1,1.21.18,8.51,8.51,0,0,1,1.2.33l4.82-4.51a5.44,5.44,0,0,0-1.86-.12,4.15,4.15,0,0,0-1.22.32Z" transform="translate(-18 -17.14)"/></g></svg>